<svg width="30" height="30" viewBox="0 0 30 30" fill="none" xmlns="http://www.w3.org/2000/svg">
<path d="M20.0616 18.1995C20.1023 17.8845 20.1232 17.5672 20.1241 17.2495C20.1112 16.9132 20.0694 16.5786 19.9991 16.2495L22.0616 14.637C22.1509 14.5658 22.2123 14.4654 22.2352 14.3535C22.258 14.2415 22.2408 14.1251 22.1866 14.0245L20.2366 10.6495C20.1806 10.5459 20.089 10.466 19.9787 10.4246C19.8684 10.3832 19.7469 10.3832 19.6366 10.4245L17.2116 11.3995C16.7075 11.0091 16.1523 10.6894 15.5616 10.4495L15.2491 7.91203C15.2287 7.79721 15.1688 7.69314 15.0797 7.61781C14.9907 7.54249 14.8782 7.50065 14.7616 7.49953H10.8616C10.7457 7.49852 10.6335 7.5399 10.546 7.61587C10.4585 7.69184 10.4018 7.79717 10.3866 7.91203L9.99907 10.4995C9.41463 10.7444 8.86424 11.0637 8.36157 11.4495L5.94907 10.4745C5.83875 10.4332 5.71721 10.4332 5.60691 10.4746C5.49661 10.516 5.40501 10.5959 5.34907 10.6995L3.41157 14.0745C3.34773 14.1714 3.32379 14.2893 3.34476 14.4034C3.36572 14.5175 3.42996 14.6191 3.52407 14.687L5.58657 16.2495C5.47834 16.8782 5.47834 17.5208 5.58657 18.1495L3.51157 19.812C3.42226 19.8833 3.36082 19.9837 3.33797 20.0956C3.31512 20.2076 3.33232 20.324 3.38657 20.4245L5.33657 23.7495C5.39251 23.8532 5.48411 23.9331 5.59441 23.9745C5.70471 24.0158 5.82625 24.0158 5.93657 23.9745L8.36157 22.9995C8.85882 23.4066 9.40985 23.7431 9.99907 23.9995L10.3616 26.587C10.382 26.7018 10.4419 26.8059 10.5309 26.8812C10.6199 26.9566 10.7325 26.9984 10.8491 26.9995H14.7491C14.8649 27.0005 14.9772 26.9592 15.0646 26.8832C15.1521 26.8072 15.2088 26.7019 15.2241 26.587L15.5866 23.9995C16.1787 23.7624 16.7342 23.4426 17.2366 23.0495L19.6616 24.0245C19.7719 24.0658 19.8934 24.0658 20.0037 24.0245C20.114 23.9831 20.2056 23.9032 20.2616 23.7995L22.2116 20.4245C22.2742 20.3261 22.2961 20.2073 22.2728 20.093C22.2495 19.9788 22.1827 19.878 22.0866 19.812L20.0616 18.1995ZM12.8116 20.912C12.0867 20.9145 11.3773 20.7018 10.7734 20.3009C10.1695 19.8999 9.69808 19.3288 9.41896 18.6598C9.13984 17.9908 9.06552 17.254 9.20542 16.5427C9.34533 15.8314 9.69316 15.1777 10.2049 14.6642C10.7166 14.1507 11.3691 13.8007 12.0799 13.6583C12.7907 13.516 13.5278 13.5878 14.1977 13.8646C14.8677 14.1415 15.4404 14.6109 15.8434 15.2135C16.2464 15.816 16.4616 16.5246 16.4616 17.2495C16.4583 18.2177 16.0731 19.1455 15.3896 19.8313C14.7062 20.5171 13.7797 20.9054 12.8116 20.912Z" fill="#333333"/>
<path d="M25.8125 7.71299C25.8456 7.54388 25.8665 7.3726 25.875 7.20049L26.95 6.60049L26.45 5.00049L25.2 5.15049C24.9908 4.88046 24.7372 4.64798 24.45 4.46299V3.21299L22.8625 2.87549L22.3625 4.01299C22.0258 4.05994 21.7 4.16572 21.4 4.32549L20.3625 3.75049L19.275 5.00049L20 5.98799C20 6.15049 19.8875 6.31299 19.85 6.48799C19.8169 6.6571 19.796 6.82838 19.7875 7.00049L18.75 7.56299L19.25 9.11299L20.5 8.96299C20.7092 9.23302 20.9628 9.4655 21.25 9.65049V10.9005L22.775 11.2505L23.275 10.113C23.6117 10.066 23.9375 9.96026 24.2375 9.80049L25.3 10.438L26.3875 9.18799L25.65 8.18799C25.7183 8.03486 25.7727 7.87589 25.8125 7.71299ZM22.5 8.67549C22.0773 8.58432 21.7081 8.32897 21.4737 7.96562C21.2393 7.60227 21.1588 7.16068 21.25 6.73799C21.3412 6.3153 21.5965 5.94614 21.9599 5.71172C22.3232 5.4773 22.7648 5.39682 23.1875 5.48799C23.3968 5.53313 23.5951 5.61905 23.7712 5.74085C23.9473 5.86265 24.0977 6.01794 24.2138 6.19785C24.3298 6.37777 24.4093 6.57878 24.4477 6.78942C24.4861 7.00006 24.4826 7.21619 24.4375 7.42549C24.3924 7.63478 24.3064 7.83314 24.1846 8.00922C24.0628 8.18531 23.9075 8.33568 23.7276 8.45176C23.5477 8.56783 23.3467 8.64733 23.1361 8.68572C22.9254 8.72411 22.7093 8.72063 22.5 8.67549Z" fill="#333333"/>
</svg>
