<svg width="24" height="24" viewBox="0 0 24 24" fill="none" xmlns="http://www.w3.org/2000/svg">
<path d="M11.99 1.99902C6.47 1.99902 2 6.47902 2 11.999C2 17.519 6.47 21.999 11.99 21.999C17.52 21.999 22 17.519 22 11.999C22 6.47902 17.52 1.99902 11.99 1.99902ZM18.92 7.99902H15.97C15.65 6.74902 15.19 5.54902 14.59 4.43902C16.43 5.06902 17.96 6.34902 18.92 7.99902ZM12 4.03902C12.83 5.23902 13.48 6.56902 13.91 7.99902H10.09C10.52 6.56902 11.17 5.23902 12 4.03902ZM4.26 13.999C4.1 13.359 4 12.689 4 11.999C4 11.309 4.1 10.639 4.26 9.99902H7.64C7.56 10.659 7.5 11.319 7.5 11.999C7.5 12.679 7.56 13.339 7.64 13.999H4.26ZM5.08 15.999H8.03C8.35 17.249 8.81 18.449 9.41 19.559C7.57 18.929 6.04 17.659 5.08 15.999ZM8.03 7.99902H5.08C6.04 6.33902 7.57 5.06902 9.41 4.43902C8.81 5.54902 8.35 6.74902 8.03 7.99902ZM12 19.959C11.17 18.759 10.52 17.429 10.09 15.999H13.91C13.48 17.429 12.83 18.759 12 19.959ZM14.34 13.999H9.66C9.57 13.339 9.5 12.679 9.5 11.999C9.5 11.319 9.57 10.649 9.66 9.99902H14.34C14.43 10.649 14.5 11.319 14.5 11.999C14.5 12.679 14.43 13.339 14.34 13.999ZM14.59 19.559C15.19 18.449 15.65 17.249 15.97 15.999H18.92C17.96 17.649 16.43 18.929 14.59 19.559ZM16.36 13.999C16.44 13.339 16.5 12.679 16.5 11.999C16.5 11.319 16.44 10.659 16.36 9.99902H19.74C19.9 10.639 20 11.309 20 11.999C20 12.689 19.9 13.359 19.74 13.999H16.36Z" fill="white"/>
</svg>
