<svg width="180" height="40" viewBox="0 0 180 40" fill="none" xmlns="http://www.w3.org/2000/svg">
<path d="M17.9 32.3998C15.9 32.0998 14 31.1998 12.3 29.9998C12.1 29.8998 12 29.6998 11.8 29.5998L9.09998 30.9998L10.5 28.1998L11.9 25.2998C13.1 27.0998 14.9 28.4998 17 29.0998L17.9 32.3998Z" fill="#237D26"/>
<path d="M27.8 29.8999C26.2 31.1999 24.2 31.9999 22.2 32.3999C22 32.3999 21.8 32.4999 21.6 32.4999L20 37.9999L18.4 32.4999L17.5 29.3999C18.3 29.5999 19.1 29.6999 20 29.6999C21.7 29.6999 23.3 29.2999 24.8 28.3999L27.8 29.8999Z" fill="#2DA131"/>
<path d="M53.2 11.5H50V10H58.2V11.5H55V19.5H53.2V11.5Z" fill="white"/>
<path d="M60.9001 13.3002C61.4001 12.5002 62.3 12.2002 63.5 12.2002V13.8002C63.4 13.8002 63.2 13.8002 63.1 13.8002C62.4 13.8002 61.9 14.0002 61.5 14.4002C61.1 14.7002 61 15.3002 61 16.0002V19.5002H59.3V12.3002H60.9001V13.3002Z" fill="white"/>
<path d="M67.7 12.2002C68.8 12.2002 69.6 12.5002 70.2 13.0002C70.8 13.5002 71.1 14.3002 71.1 15.3002V19.5002H69.5V18.6002C69.3 18.9002 69 19.2002 68.6 19.3002C68.2 19.5002 67.7 19.5002 67.2 19.5002C66.7 19.5002 66.2 19.4002 65.7 19.2002C65.3 19.0002 65 18.8002 64.7 18.4002C64.5 18.1002 64.4 17.7002 64.4 17.3002C64.4 16.6002 64.6 16.1002 65.1 15.7002C65.6 15.3002 66.4 15.1002 67.4 15.1002H69.3V15.0002C69.3 14.5002 69.1 14.1002 68.8 13.8002C68.5 13.5002 68 13.4002 67.4 13.4002C67 13.4002 66.6 13.5002 66.2 13.6002C65.8 13.7002 65.5 13.9002 65.2 14.1002L64.5 12.9002C64.9 12.6002 65.4 12.4002 65.9 12.2002C66.6 12.3002 67.1 12.2002 67.7 12.2002ZM67.5 18.4002C67.9 18.4002 68.3 18.3002 68.6 18.1002C68.9 17.9002 69.2 17.6002 69.3 17.3002V16.5002H67.5C66.5 16.5002 66 16.8002 66 17.5002C66 17.8002 66.1 18.1002 66.4 18.2002C66.7 18.3002 67.1 18.4002 67.5 18.4002Z" fill="white"/>
<path d="M77.5 12.2002C78.4 12.2002 79.2 12.5002 79.7 13.0002C80.3 13.5002 80.5 14.3002 80.5 15.4002V19.5002H78.8V15.6002C78.8 15.0002 78.6 14.5002 78.3 14.2002C78 13.9002 77.6 13.7002 77 13.7002C76.4 13.7002 75.9 13.9002 75.5 14.3002C75.1 14.7002 74.9 15.2002 74.9 15.9002V19.6002H73.2V12.4002H75V13.3002C75.3 13.0002 75.6 12.7002 76.1 12.5002C76.5 12.3002 77 12.2002 77.5 12.2002Z" fill="white"/>
<path d="M85.1 19.5998C84.5 19.5998 83.9 19.4998 83.3 19.3998C82.7 19.1998 82.3 19.0998 81.9 18.7998L82.6 17.4998C82.9 17.6998 83.3 17.8998 83.8 17.9998C84.3 18.0998 84.7 18.1998 85.2 18.1998C86.2 18.1998 86.7 17.8998 86.7 17.3998C86.7 17.0998 86.6 16.9998 86.3 16.8998C86 16.7998 85.6 16.6998 85 16.5998C84.4 16.4998 83.9 16.3998 83.5 16.2998C83.1 16.1998 82.8 15.9998 82.5 15.6998C82.2 15.3998 82.1 14.9998 82.1 14.4998C82.1 13.7998 82.4 13.2998 83 12.8998C83.6 12.4998 84.4 12.2998 85.4 12.2998C85.9 12.2998 86.4 12.3998 86.9 12.4998C87.4 12.5998 87.8 12.7998 88.1 12.8998L87.4 14.1998C86.8 13.7998 86.1 13.6998 85.3 13.6998C84.8 13.6998 84.4 13.7998 84.1 13.8998C83.8 13.9998 83.7 14.1998 83.7 14.4998C83.7 14.7998 83.8 14.9998 84.1 15.0998C84.4 15.1998 84.8 15.2998 85.4 15.3998C86 15.4998 86.5 15.5998 86.9 15.6998C87.3 15.7998 87.6 15.9998 87.9 16.2998C88.2 16.5998 88.3 16.9998 88.3 17.4998C88.3 18.1998 88 18.6998 87.4 19.0998C86.9 19.3998 86.1 19.5998 85.1 19.5998Z" fill="white"/>
<path d="M94 12.2002C94.7 12.2002 95.4 12.4002 95.9 12.7002C96.5 13.0002 96.9 13.4002 97.2 14.0002C97.5 14.6002 97.7 15.2002 97.7 15.9002C97.7 16.6002 97.5 17.3002 97.2 17.9002C96.9 18.5002 96.4 18.9002 95.9 19.2002C95.3 19.5002 94.7 19.7002 94 19.7002C93 19.7002 92.2 19.4002 91.6 18.7002V22.2002H89.9V12.3002H91.5V13.2002C91.8 12.9002 92.1 12.6002 92.6 12.4002C93 12.3002 93.5 12.2002 94 12.2002ZM93.8 18.2002C94.4 18.2002 95 18.0002 95.4 17.6002C95.8 17.2002 96 16.6002 96 16.0002C96 15.3002 95.8 14.8002 95.4 14.4002C95 14.0002 94.5 13.8002 93.8 13.8002C93.4 13.8002 93 13.9002 92.7 14.1002C92.4 14.3002 92.1 14.5002 91.9 14.9002C91.7 15.2002 91.6 15.6002 91.6 16.1002C91.6 16.6002 91.7 16.9002 91.9 17.3002C92.1 17.6002 92.4 17.9002 92.7 18.1002C93 18.1002 93.4 18.2002 93.8 18.2002Z" fill="white"/>
<path d="M102.1 12.2002C103.2 12.2002 104 12.5002 104.6 13.0002C105.2 13.5002 105.5 14.3002 105.5 15.3002V19.5002H103.9V18.6002C103.7 18.9002 103.4 19.2002 103 19.3002C102.6 19.5002 102.1 19.5002 101.6 19.5002C101 19.5002 100.6 19.4002 100.1 19.2002C99.7 19.0002 99.4 18.8002 99.1 18.4002C98.9 18.1002 98.8 17.7002 98.8 17.3002C98.8 16.6002 99 16.1002 99.5 15.7002C100 15.3002 100.8 15.1002 101.8 15.1002H103.7V15.0002C103.7 14.5002 103.5 14.1002 103.2 13.8002C102.9 13.5002 102.4 13.4002 101.8 13.4002C101.4 13.4002 101 13.5002 100.6 13.6002C100.2 13.7002 99.9 13.9002 99.6 14.1002L99 13.1002C99.4 12.8002 99.9 12.6002 100.4 12.4002C100.9 12.3002 101.5 12.2002 102.1 12.2002ZM101.9 18.4002C102.3 18.4002 102.7 18.3002 103 18.1002C103.3 17.9002 103.6 17.6002 103.7 17.3002V16.5002H102C101 16.5002 100.5 16.8002 100.5 17.5002C100.5 17.8002 100.6 18.1002 100.9 18.2002C101.1 18.3002 101.4 18.4002 101.9 18.4002Z" fill="white"/>
<path d="M109.4 13.3002C109.9 12.5002 110.8 12.2002 112 12.2002V13.8002C111.9 13.8002 111.7 13.8002 111.6 13.8002C110.9 13.8002 110.4 14.0002 110 14.4002C109.6 14.8002 109.4 15.3002 109.4 16.1002V19.6002H107.7V12.4002H109.3V13.3002H109.4Z" fill="white"/>
<path d="M120.3 15.9002C120.3 16.0002 120.3 16.2002 120.3 16.4002H114.5C114.6 16.9002 114.9 17.4002 115.3 17.7002C115.7 18.0002 116.3 18.2002 116.9 18.2002C117.7 18.2002 118.4 17.9002 118.9 17.4002L119.8 18.4002C119.5 18.8002 119 19.1002 118.5 19.3002C118 19.5002 117.4 19.6002 116.8 19.6002C116 19.6002 115.3 19.4002 114.7 19.1002C114.1 18.8002 113.6 18.3002 113.3 17.8002C113 17.2002 112.8 16.6002 112.8 15.9002C112.8 15.2002 113 14.6002 113.3 14.0002C113.6 13.4002 114.1 13.0002 114.7 12.7002C115.3 12.4002 115.9 12.2002 116.7 12.2002C117.4 12.2002 118.1 12.4002 118.6 12.7002C119.2 13.0002 119.6 13.4002 119.9 14.0002C120.2 14.5002 120.3 15.2002 120.3 15.9002ZM116.6 13.6002C116 13.6002 115.6 13.8002 115.2 14.1002C114.8 14.4002 114.6 14.8002 114.5 15.4002H118.7C118.6 14.9002 118.4 14.5002 118 14.1002C117.6 13.7002 117.2 13.6002 116.6 13.6002Z" fill="white"/>
<path d="M126.2 12.2002C127.1 12.2002 127.9 12.5002 128.4 13.0002C129 13.5002 129.2 14.3002 129.2 15.4002V19.5002H127.5V15.6002C127.5 15.0002 127.3 14.5002 127 14.2002C126.7 13.9002 126.3 13.7002 125.7 13.7002C125.1 13.7002 124.6 13.9002 124.2 14.3002C123.8 14.7002 123.6 15.2002 123.6 15.9002V19.6002H122V12.4002H123.6V13.3002C123.9 13.0002 124.2 12.7002 124.7 12.5002C125.1 12.3002 125.6 12.2002 126.2 12.2002Z" fill="white"/>
<path d="M133.6 11.5H130.4V10H138.6V11.5H135.4V19.5H133.6V11.5Z" fill="white"/>
<path d="M146 15.9002C146 16.0002 146 16.2002 146 16.4002H140.2C140.3 16.9002 140.6 17.4002 141 17.7002C141.4 18.0002 142 18.2002 142.6 18.2002C143.4 18.2002 144.1 17.9002 144.6 17.4002L145.5 18.4002C145.2 18.8002 144.7 19.1002 144.2 19.3002C143.7 19.5002 143.1 19.6002 142.5 19.6002C141.7 19.6002 141 19.4002 140.4 19.1002C139.8 18.8002 139.3 18.3002 139 17.8002C138.7 17.2002 138.5 16.6002 138.5 15.9002C138.5 15.2002 138.7 14.6002 139 14.0002C139.3 13.4002 139.8 13.0002 140.4 12.7002C141 12.4002 141.6 12.2002 142.4 12.2002C143.1 12.2002 143.8 12.4002 144.3 12.7002C144.9 13.0002 145.3 13.4002 145.6 14.0002C145.8 14.5002 146 15.2002 146 15.9002ZM142.2 13.6002C141.6 13.6002 141.2 13.8002 140.8 14.1002C140.4 14.4002 140.2 14.8002 140.1 15.4002H144.3C144.2 14.9002 144 14.5002 143.6 14.1002C143.3 13.7002 142.8 13.6002 142.2 13.6002Z" fill="white"/>
<path d="M149.3 13.3002C149.8 12.5002 150.7 12.2002 151.9 12.2002V13.8002C151.8 13.8002 151.6 13.8002 151.5 13.8002C150.8 13.8002 150.3 14.0002 149.9 14.4002C149.5 14.8002 149.3 15.3002 149.3 16.1002V19.6002H147.6V12.4002H149.2V13.3002H149.3Z" fill="white"/>
<path d="M155 13.3002C155.5 12.5002 156.4 12.2002 157.6 12.2002V13.8002C157.5 13.8002 157.3 13.8002 157.2 13.8002C156.5 13.8002 156 14.0002 155.6 14.4002C155.2 14.8002 155 15.3002 155 16.1002V19.6002H153.3V12.4002H154.9V13.3002H155Z" fill="white"/>
<path d="M161.9 12.2002C163 12.2002 163.8 12.5002 164.4 13.0002C165 13.5002 165.3 14.3002 165.3 15.3002V19.5002H163.7V18.6002C163.5 18.9002 163.2 19.2002 162.8 19.3002C162.4 19.5002 161.9 19.5002 161.4 19.5002C160.9 19.5002 160.4 19.4002 159.9 19.2002C159.5 19.0002 159.2 18.8002 158.9 18.4002C158.7 18.1002 158.6 17.7002 158.6 17.3002C158.6 16.6002 158.8 16.1002 159.3 15.7002C159.8 15.3002 160.6 15.1002 161.6 15.1002H163.5V15.0002C163.5 14.5002 163.3 14.1002 163 13.8002C162.7 13.5002 162.2 13.4002 161.6 13.4002C161.2 13.4002 160.8 13.5002 160.4 13.6002C160 13.7002 159.7 13.9002 159.4 14.1002L158.7 12.9002C159.1 12.6002 159.6 12.4002 160.1 12.2002C160.7 12.3002 161.3 12.2002 161.9 12.2002ZM161.7 18.4002C162.1 18.4002 162.5 18.3002 162.8 18.1002C163.1 17.9002 163.4 17.6002 163.5 17.3002V16.5002H161.7C160.7 16.5002 160.2 16.8002 160.2 17.5002C160.2 17.8002 160.3 18.1002 160.6 18.2002C160.9 18.3002 161.2 18.4002 161.7 18.4002Z" fill="white"/>
<path d="M171.9 8.4H170.2V8H174.1V8.4H172.4V12.7H171.9V8.4Z" fill="white"/>
<path d="M180 8V12.7H179.5V8.9L177.6 12.1H177.4L175.5 9V12.8H175V8H175.4L177.5 11.5L179.6 8H180Z" fill="white"/>
<path d="M71.7 26.6001H69.6V25.6001H75.1V26.6001H73V31.9001H71.8V26.6001H71.7Z" fill="white"/>
<path d="M77.6 32C77.1 32 76.7 31.9 76.3 31.7C75.9 31.5 75.6 31.2 75.4 30.8C75.2 30.4 75.1 30 75.1 29.5C75.1 29 75.2 28.6 75.4 28.2C75.6 27.8 75.9 27.5 76.3 27.3C76.7 27.1 77.1 27 77.6 27C78.1 27 78.6 27.1 79 27.3C79.4 27.5 79.7 27.8 79.9 28.2C80.1 28.6 80.2 29 80.2 29.5C80.2 30 80.1 30.4 79.9 30.8C79.7 31.2 79.4 31.5 79 31.7C78.5 31.9 78.1 32 77.6 32ZM77.6 31C78 31 78.4 30.9 78.7 30.6C79 30.3 79.1 30 79.1 29.5C79.1 29 79 28.7 78.7 28.4C78.3 28.2 78 28 77.6 28C77.2 28 76.8 28.1 76.5 28.4C76.2 28.7 76.1 29 76.1 29.5C76.1 30 76.2 30.3 76.5 30.6C76.8 30.9 77.1 31 77.6 31Z" fill="white"/>
<path d="M88.2 31.9L86.9 30C86.8 30 86.8 30 86.7 30H85.2V31.8H84V25.5H86.7C87.3 25.5 87.7 25.6 88.2 25.8C88.6 26 88.9 26.2 89.2 26.6C89.4 26.9 89.5 27.3 89.5 27.8C89.5 28.3 89.4 28.7 89.1 29C88.9 29.3 88.5 29.6 88.1 29.8L89.6 31.9H88.2ZM88.1 27.9C88.1 27.5 88 27.2 87.7 27C87.4 26.8 87 26.7 86.5 26.7H85.1V29.2H86.5C87 29.2 87.4 29.1 87.7 28.9C88 28.6 88.1 28.3 88.1 27.9Z" fill="white"/>
<path d="M95.2 29.6C95.2 29.7 95.2 29.8 95.2 29.9H91.3C91.4 30.3 91.5 30.5 91.8 30.7C92.1 30.9 92.4 31 92.9 31C93.4 31 93.9 30.8 94.2 30.5L94.8 31.2C94.6 31.5 94.3 31.7 94 31.8C93.7 31.9 93.3 32 92.9 32C92.4 32 91.9 31.9 91.5 31.7C91.1 31.5 90.8 31.2 90.5 30.8C90.3 30.4 90.2 30 90.2 29.5C90.2 29 90.3 28.6 90.5 28.2C90.7 27.8 91 27.5 91.4 27.3C91.8 27.1 92.2 27 92.7 27C93.2 27 93.6 27.1 94 27.3C94.4 27.5 94.7 27.8 94.9 28.2C95.1 28.6 95.2 29.1 95.2 29.6ZM92.7 28C92.3 28 92 28.1 91.8 28.3C91.5 28.5 91.4 28.8 91.3 29.1H94.1C94.1 28.8 93.9 28.5 93.6 28.3C93.4 28.1 93.1 28 92.7 28Z" fill="white"/>
<path d="M97.8 32C97.4 32 97 31.9 96.6 31.8C96.2 31.7 95.9 31.6 95.7 31.4L96.1 30.5C96.3 30.6 96.6 30.8 96.9 30.9C97.2 31 97.5 31 97.8 31C98.5 31 98.8 30.8 98.8 30.5C98.8 30.3 98.7 30.2 98.5 30.1C98.3 30 98 30 97.7 29.9C97.3 29.8 97 29.8 96.7 29.7C96.4 29.6 96.2 29.5 96 29.3C95.8 29.1 95.7 28.8 95.7 28.5C95.7 28 95.9 27.7 96.3 27.4C96.7 27.1 97.2 27 97.9 27C98.2 27 98.6 27 98.9 27.1C99.2 27.2 99.5 27.3 99.7 27.4L99.3 28.3C98.9 28.1 98.4 27.9 97.9 27.9C97.6 27.9 97.3 28 97.1 28.1C96.9 28.2 96.8 28.3 96.8 28.5C96.8 28.7 96.9 28.8 97.1 28.9C97.3 29 97.6 29 98 29.1C98.4 29.2 98.7 29.2 99 29.3C99.3 29.4 99.5 29.5 99.6 29.7C99.8 29.9 99.9 30.2 99.9 30.5C99.9 31 99.7 31.3 99.3 31.6C99.1 31.9 98.5 32 97.8 32Z" fill="white"/>
<path d="M104 31.7C103.9 31.8 103.7 31.9 103.5 31.9C103.3 32 103.1 32 102.9 32C102.4 32 101.9 31.9 101.6 31.6C101.3 31.3 101.2 30.9 101.2 30.4V28.1H100.4V27.2H101.2V26H102.4V27.1H103.7V28H102.4V30.3C102.4 30.5 102.5 30.7 102.6 30.8C102.7 30.9 102.9 31 103.1 31C103.4 31 103.6 30.9 103.7 30.8L104 31.7Z" fill="white"/>
<path d="M107 32C106.5 32 106.1 31.9 105.7 31.7C105.3 31.5 105 31.2 104.8 30.8C104.6 30.4 104.5 30 104.5 29.5C104.5 29 104.6 28.6 104.8 28.2C105 27.8 105.3 27.5 105.7 27.3C106.1 27.1 106.5 27 107 27C107.5 27 108 27.1 108.4 27.3C108.8 27.5 109.1 27.8 109.3 28.2C109.5 28.6 109.6 29 109.6 29.5C109.6 30 109.5 30.4 109.3 30.8C109.1 31.2 108.8 31.5 108.4 31.7C108 31.9 107.5 32 107 32ZM107 31C107.4 31 107.8 30.9 108.1 30.6C108.4 30.3 108.5 30 108.5 29.5C108.5 29 108.4 28.7 108.1 28.4C107.8 28.1 107.5 28 107 28C106.6 28 106.2 28.1 105.9 28.4C105.6 28.7 105.5 29 105.5 29.5C105.5 30 105.6 30.3 105.9 30.6C106.2 30.9 106.6 31 107 31Z" fill="white"/>
<path d="M111.8 27.8C112.1 27.3 112.7 27 113.6 27V28.1C113.5 28.1 113.4 28.1 113.3 28.1C112.9 28.1 112.5 28.2 112.2 28.5C111.9 28.8 111.8 29.1 111.8 29.6V31.9H110.6V27.1H111.7V27.8H111.8Z" fill="white"/>
<path d="M119.2 29.6C119.2 29.7 119.2 29.8 119.2 29.9H115.3C115.4 30.3 115.5 30.5 115.8 30.7C116.1 30.9 116.4 31 116.9 31C117.4 31 117.9 30.8 118.2 30.5L118.8 31.2C118.6 31.5 118.3 31.7 118 31.8C117.7 31.9 117.3 32 116.9 32C116.4 32 115.9 31.9 115.5 31.7C115.1 31.5 114.8 31.2 114.5 30.8C114.3 30.4 114.2 30 114.2 29.5C114.2 29 114.3 28.6 114.5 28.2C114.7 27.8 115 27.5 115.4 27.3C115.8 27.1 116.2 27 116.7 27C117.2 27 117.6 27.1 118 27.3C118.4 27.5 118.7 27.8 118.9 28.2C119.1 28.6 119.2 29.1 119.2 29.6ZM116.7 28C116.3 28 116 28.1 115.8 28.3C115.5 28.5 115.4 28.8 115.3 29.1H118.1C118.1 28.8 117.9 28.5 117.6 28.3C117.4 28.1 117 28 116.7 28Z" fill="white"/>
<path d="M124.2 26.6001H122.1V25.6001H127.6V26.6001H125.5V31.9001H124.3V26.6001H124.2Z" fill="white"/>
<path d="M129.3 27.8C129.6 27.3 130.2 27 131.1 27V28.1C131 28.1 130.9 28.1 130.8 28.1C130.4 28.1 130 28.2 129.7 28.5C129.4 28.8 129.3 29.1 129.3 29.6V31.9H128.1V27.1H129.2V27.8H129.3Z" fill="white"/>
<path d="M136.9 27.1001V31.9001H135.8V31.3001C135.6 31.5001 135.4 31.7001 135.1 31.8001C134.8 31.9001 134.5 32.0001 134.2 32.0001C133.5 32.0001 133 31.8001 132.6 31.5001C132.2 31.1001 132 30.6001 132 29.9001V27.1001H133.2V29.7001C133.2 30.1001 133.3 30.5001 133.5 30.7001C133.7 30.9001 134 31.0001 134.4 31.0001C134.8 31.0001 135.1 30.9001 135.4 30.6001C135.6 30.3001 135.8 30.0001 135.8 29.5001V27.1001H136.9Z" fill="white"/>
<path d="M139.9 32C139.5 32 139.1 31.9 138.7 31.8C138.3 31.7 138 31.6 137.8 31.4L138.2 30.5C138.4 30.6 138.7 30.8 139 30.9C139.3 31 139.6 31 139.9 31C140.6 31 140.9 30.8 140.9 30.5C140.9 30.3 140.8 30.2 140.6 30.1C140.4 30 140.1 30 139.8 29.9C139.4 29.8 139.1 29.8 138.8 29.7C138.5 29.6 138.3 29.5 138.1 29.3C137.9 29.1 137.8 28.8 137.8 28.5C137.8 28 138 27.7 138.4 27.4C138.8 27.1 139.3 27 140 27C140.3 27 140.7 27 141 27.1C141.3 27.2 141.6 27.3 141.8 27.4L141.4 28.3C141 28.1 140.5 27.9 140 27.9C139.7 27.9 139.4 28 139.2 28.1C139 28.2 138.9 28.3 138.9 28.5C138.9 28.7 139 28.8 139.2 28.9C139.4 29 139.7 29 140.1 29.1C140.5 29.2 140.8 29.2 141.1 29.3C141.4 29.4 141.6 29.5 141.7 29.7C141.9 29.9 142 30.2 142 30.5C142 31 141.8 31.3 141.4 31.6C141.2 31.9 140.6 32 139.9 32Z" fill="white"/>
<path d="M146.1 31.7C146 31.8 145.8 31.9 145.6 31.9C145.4 32 145.2 32 145 32C144.5 32 144 31.9 143.7 31.6C143.4 31.3 143.3 30.9 143.3 30.4V28.1H142.5V27.2H143.3V26H144.5V27.1H145.8V28H144.5V30.3C144.5 30.5 144.6 30.7 144.7 30.8C144.8 30.9 145 31 145.2 31C145.5 31 145.7 30.9 145.8 30.8L146.1 31.7Z" fill="white"/>
<path d="M22.3 10C21.6 9.8 20.8 9.7 20 9.7C18 9.7 16.2 10.3 14.6 11.2L12.2 10C13.8 8.7 15.8 7.9 17.8 7.5C18 7.5 18.2 7.4 18.4 7.4L20 2L21.6 7.6L22.3 10Z" fill="#2E58A6"/>
<path d="M14.1 11.7001C12.2 13.0001 10.8 15.0001 10.2 17.2001L7.59998 17.9001C7.89998 15.9001 8.79998 14.0001 9.99998 12.3001C10.1 12.1001 10.3 12.0001 10.4 11.8001L8.99998 9.1001L11.8 10.5001L14.1 11.7001Z" fill="#122164"/>
<path d="M11.3 25.4002L10.1 27.8002C8.8 26.2002 8 24.2002 7.6 22.2002C7.6 22.0002 7.5 21.8002 7.5 21.6002L2 20.0002L7.5 18.4002L10 17.7002C9.8 18.4002 9.7 19.2002 9.7 20.0002C9.8 22.0002 10.3 23.8002 11.3 25.4002Z" fill="#12491D"/>
<path d="M17.9 32.3999C15.9 32.0999 14 31.1999 12.3 29.9999C12.1 29.8999 12 29.7999 11.8 29.5999L9.09998 30.9999L10.5 28.1999L11.7 25.8999C13 27.7999 15 29.1999 17.2 29.7999L17.9 32.3999Z" fill="#237D26"/>
<path d="M27.7999 29.8998C26.1999 31.1998 24.3 31.9998 22.2 32.3998C22 32.3998 21.8 32.4998 21.6 32.4998L20 37.9998L18.4 32.4998L17.7 29.9998C18.4 30.1998 19.2 30.2998 20 30.2998C22 30.2998 23.8 29.6998 25.4 28.7998L27.7999 29.8998Z" fill="#2DA131"/>
<path d="M29.6 28.1001L31 30.9001L28.2 29.5001L25.9 28.3001C27.8 27.0001 29.2 25.0001 29.8 22.8001L32.4 22.1001C32.1 24.1001 31.2 26.0001 30 27.7001C29.9 27.8001 29.7 28.0001 29.6 28.1001Z" fill="#41AA54"/>
<path d="M38 20.0002L32.5 21.6002L30 22.3002C30.2 21.5002 30.3 20.8002 30.3 20.0002C30.3 18.0002 29.7 16.2002 28.8 14.6002L30 12.2002C31.3 13.8002 32.2 15.8002 32.5 17.8002C32.5 18.0002 32.6 18.2002 32.6 18.4002L38 20.0002Z" fill="#01A0C6"/>
<path d="M30.9 9.0002L29.5 11.8002L28.3 14.1002C27 12.2002 25 10.8002 22.8 10.2002L22.1 7.7002C24.1 8.0002 26 8.9002 27.7 10.1002C27.9 10.2002 28 10.3002 28.2 10.5002L30.9 9.0002Z" fill="#4FA0CA"/>
<path fill-rule="evenodd" clip-rule="evenodd" d="M33 18C33 17.9 33 17.8 33 17.8C32.6 15.7 31.7 13.7 30.4 11.9L30.2 11.7L32.2 7.8L28.3 9.8C26.4 8.3 24.3 7.4 22 7L20 0L18 7C17.9 7 17.8 7 17.8 7C15.7 7.4 13.6 8.3 11.9 9.6L11.7 9.8L7.8 7.9L9.7 11.8C8.8 13 8 14.3 7.5 15.7V15.8C7.5 15.9 7.4 16 7.4 16.1C7.4 16.2 7.3 16.3 7.3 16.4C7.3 16.5 7.3 16.5 7.2 16.6C7.2 16.6 7.2 16.7 7.2 16.8C7.2 16.9 7.2 16.9 7.2 17C7.2 17 7.2 17.1 7.2 17.2C7.2 17.3 7.2 17.4 7.2 17.4C7.2 17.5 7.2 17.6 7.2 17.6V17.7L7 18L0 20L7 22C7 22.1 7 22.2 7 22.3C7.4 24.4 8.3 26.4 9.6 28.1L9.8 28.3L7.8 32.2L11.7 30.2C11.8 30.3 11.8 30.3 11.9 30.4C13.6 31.7 15.6 32.6 17.7 32.9H17.9L19.9 39.9L21.9 32.9C22 32.9 22.1 32.9 22.1 32.9C24.2 32.5 26.2 31.6 27.9 30.3L28.1 30.1L32 32.1L30 28.2C30.1 28.1 30.1 28.1 30.2 28C31.5 26.3 32.4 24.3 32.7 22.2V22L39.7 20L33 18ZM27.3 10.5C27.5 10.6 27.6 10.7 27.8 10.9L28.1 11.1L29.1 10.6L29.7 10.3L29.4 10.9L29 11.5L28 13.4C26.8 11.9 25.2 10.8 23.3 10.1L22.8 8.2C24.5 8.7 26 9.5 27.3 10.5ZM20 29.1C15 29.1 10.9 25 10.9 20C10.9 15 15 10.9 20 10.9C25 10.9 29.1 15 29.1 20C29.1 25 25 29.1 20 29.1ZM17.9 8.1C18.1 8.1 18.3 8 18.5 8H18.8L19.1 6.9L20 3.9L20.9 6.9L21.1 7.6L21.7 9.7C21.2 9.6 20.6 9.6 20 9.6C18.2 9.6 16.5 10.1 15 10.9L13.3 10C14.7 9.1 16.2 8.4 17.9 8.1ZM10.4 12.7C10.5 12.5 10.6 12.4 10.8 12.2L11 12L10.5 11L10.2 10.4L10.8 10.7L13.4 12C11.9 13.2 10.8 14.8 10.2 16.7L8.3 17.2C8.7 15.5 9.4 14 10.4 12.7ZM8.1 22.1C8.1 21.9 8 21.7 8 21.5V21.2L6.9 20.9L3.9 20L6.9 19.1L9.7 18.3C9.6 18.8 9.6 19.4 9.6 20C9.6 21.8 10.1 23.5 10.9 25L10 26.8C9.1 25.3 8.4 23.8 8.1 22.1ZM12.7 29.6C12.5 29.5 12.4 29.4 12.2 29.2L12 29L11 29.5L10.4 29.8L10.7 29.2L11 28.5L12 26.6C13.2 28.1 14.8 29.2 16.6 29.8L17.1 31.7C15.5 31.3 14 30.6 12.7 29.6ZM22.1 31.9C21.9 31.9 21.7 31.9 21.5 32H21.2L20.9 33.1L20 36.1L19.1 33.1L18.3 30.2C18.9 30.3 19.4 30.3 20 30.3C21.8 30.3 23.5 29.8 25 29L26.8 29.9C25.3 30.9 23.8 31.6 22.1 31.9ZM29.6 27.3C29.5 27.5 29.4 27.6 29.2 27.8L29 28L29.5 29L29.8 29.6L29.2 29.3L28.5 29L26.5 28C28 26.8 29.1 25.2 29.8 23.4L31.7 22.9C31.3 24.5 30.6 26 29.6 27.3ZM30.2 21.7C30.3 21.2 30.3 20.6 30.3 20C30.3 18.2 29.8 16.5 29 15L29.9 13.2C30.9 14.6 31.5 16.2 31.8 17.9C31.8 18.1 31.9 18.3 31.9 18.4V18.7L33 19L36 19.9L33 20.7L30.2 21.7Z" fill="white"/>
</svg>
