<svg width="40" height="40" viewBox="0 0 40 40" fill="none" xmlns="http://www.w3.org/2000/svg">
<path fill-rule="evenodd" clip-rule="evenodd" d="M33 18C33 17.9 33 17.8 33 17.8C32.6 15.7 31.7 13.7 30.4 11.9L30.2 11.7L32.2 7.8L28.3 9.8C26.4 8.3 24.3 7.4 22 7L20 0L18 7C17.9 7 17.8 7 17.8 7C15.7 7.4 13.6 8.3 11.9 9.6L11.7 9.8L7.8 7.9L9.7 11.8C8.8 13 8 14.3 7.5 15.7V15.8C7.5 15.9 7.4 16 7.4 16.1C7.4 16.2 7.3 16.3 7.3 16.4C7.3 16.5 7.3 16.5 7.2 16.6C7.2 16.6 7.2 16.7 7.2 16.8C7.2 16.9 7.2 16.9 7.2 17C7.2 17 7.2 17.1 7.2 17.2C7.2 17.3 7.2 17.4 7.2 17.4C7.2 17.5 7.2 17.6 7.2 17.6V17.7L7 18L0 20L7 22C7 22.1 7 22.2 7 22.3C7.4 24.4 8.3 26.4 9.6 28.1L9.8 28.3L7.8 32.2L11.7 30.2C11.8 30.3 11.8 30.3 11.9 30.4C13.6 31.7 15.6 32.6 17.7 32.9H17.9L19.9 39.9L21.9 32.9C22 32.9 22.1 32.9 22.1 32.9C24.2 32.5 26.2 31.6 27.9 30.3L28.1 30.1L32 32.1L30 28.2C30.1 28.1 30.1 28.1 30.2 28C31.5 26.3 32.4 24.3 32.7 22.2V22L39.7 20L33 18ZM27.3 10.5C27.5 10.6 27.6 10.7 27.8 10.9L28.1 11.1L29.1 10.6L29.7 10.3L29.4 10.9L29 11.5L28 13.4C26.8 11.9 25.2 10.8 23.3 10.1L22.8 8.2C24.5 8.7 26 9.5 27.3 10.5ZM20 29.1C15 29.1 10.9 25 10.9 20C10.9 15 15 10.9 20 10.9C25 10.9 29.1 15 29.1 20C29.1 25 25 29.1 20 29.1ZM17.9 8.1C18.1 8.1 18.3 8 18.5 8H18.8L19.1 6.9L20 3.9L20.9 6.9L21.1 7.6L21.7 9.7C21.2 9.6 20.6 9.6 20 9.6C18.2 9.6 16.5 10.1 15 10.9L13.3 10C14.7 9.1 16.2 8.4 17.9 8.1ZM10.4 12.7C10.5 12.5 10.6 12.4 10.8 12.2L11 12L10.5 11L10.2 10.4L10.8 10.7L13.4 12C11.9 13.2 10.8 14.8 10.2 16.7L8.3 17.2C8.7 15.5 9.4 14 10.4 12.7ZM8.1 22.1C8.1 21.9 8 21.7 8 21.5V21.2L6.9 20.9L3.9 20L6.9 19.1L9.7 18.3C9.6 18.8 9.6 19.4 9.6 20C9.6 21.8 10.1 23.5 10.9 25L10 26.8C9.1 25.3 8.4 23.8 8.1 22.1ZM12.7 29.6C12.5 29.5 12.4 29.4 12.2 29.2L12 29L11 29.5L10.4 29.8L10.7 29.2L11 28.5L12 26.6C13.2 28.1 14.8 29.2 16.6 29.8L17.1 31.7C15.5 31.3 14 30.6 12.7 29.6ZM22.1 31.9C21.9 31.9 21.7 31.9 21.5 32H21.2L20.9 33.1L20 36.1L19.1 33.1L18.3 30.2C18.9 30.3 19.4 30.3 20 30.3C21.8 30.3 23.5 29.8 25 29L26.8 29.9C25.3 30.9 23.8 31.6 22.1 31.9ZM29.6 27.3C29.5 27.5 29.4 27.6 29.2 27.8L29 28L29.5 29L29.8 29.6L29.2 29.3L28.5 29L26.5 28C28 26.8 29.1 25.2 29.8 23.4L31.7 22.9C31.3 24.5 30.6 26 29.6 27.3ZM30.2 21.7C30.3 21.2 30.3 20.6 30.3 20C30.3 18.2 29.8 16.5 29 15L29.9 13.2C30.9 14.6 31.5 16.2 31.8 17.9C31.8 18.1 31.9 18.3 31.9 18.4V18.7L33 19L36 19.9L33 20.7L30.2 21.7Z" fill="white"/>
</svg>
